<?xml version="1.0" encoding="UTF-8"?>
<svg id="Layer_1" data-name="Layer 1" xmlns="http://www.w3.org/2000/svg" viewBox="0 0 179.57 179.57">
  <defs>
    <style>
      .cls-1 {
        fill: #cccccb;
      }

      .cls-2 {
        fill: #3e3e42;
      }

      .cls-3 {
        fill: #beb6da;
      }

      .cls-4 {
        stroke: #ececec;
      }

      .cls-4, .cls-5, .cls-6 {
        fill: none;
        stroke-miterlimit: 10;
        stroke-width: 5px;
      }

      .cls-5 {
        stroke: #dc584d;
      }

      .cls-7 {
        fill: #1e1e1e;
      }

      .cls-6 {
        stroke: #549054;
      }
    </style>
  </defs>
  <rect class="cls-1" width="179.57" height="179.57" rx="20.48" ry="20.48"/>
  <rect class="cls-7" x="7.44" y="9" width="164.7" height="163.13" rx="14.15" ry="14.15"/>
  <path class="cls-2" d="M157.98,9H46.38v163.13h111.6c7.82,0,14.15-6.28,14.15-14.02V23.02c0-7.74-6.34-14.02-14.15-14.02Z"/>
  <line class="cls-4" x1="97.9" y1="95.37" x2="139.07" y2="95.37"/>
  <line class="cls-4" x1="76.77" y1="85.59" x2="122.74" y2="85.59"/>
  <line class="cls-5" x1="76.77" y1="95.37" x2="91.75" y2="95.37"/>
  <line class="cls-6" x1="97.9" y1="21.21" x2="139.07" y2="21.21"/>
  <line class="cls-6" x1="76.77" y1="21.21" x2="91.75" y2="21.21"/>
  <line class="cls-6" x1="76.77" y1="75.82" x2="104.54" y2="75.82"/>
  <line class="cls-6" x1="65.82" y1="64.38" x2="57.71" y2="80.62"/>
  <line class="cls-6" x1="74.24" y1="64.38" x2="66.12" y2="80.62"/>
  <line class="cls-4" x1="76.37" y1="154.56" x2="117.54" y2="154.56"/>
  <line class="cls-5" x1="76.37" y1="134.42" x2="122.34" y2="134.42"/>
  <line class="cls-4" x1="76.37" y1="144.49" x2="100.41" y2="144.49"/>
  <line class="cls-4" x1="108.74" y1="143.9" x2="132.78" y2="143.9"/>
  <line class="cls-6" x1="76.37" y1="124.35" x2="130.99" y2="124.35"/>
  <line class="cls-6" x1="65.82" y1="112.91" x2="57.71" y2="129.15"/>
  <line class="cls-6" x1="74.24" y1="112.91" x2="66.12" y2="129.15"/>
  <g>
    <path class="cls-3" d="M65.4,53.02v-9.52h-7.43v9.52h-4.12v-21.87h4.12v8.79h7.43v-8.79h4.12v21.87h-4.12Z"/>
    <path class="cls-3" d="M88.25,43.21c0,.28,0,.64-.02,1.09-.02.45-.04.87-.08,1.26h-11.18c0,.75.11,1.41.34,1.97s.55,1.05.97,1.43c.42.38.92.68,1.51.88.59.2,1.24.3,1.95.3.83,0,1.71-.06,2.65-.19.94-.13,1.92-.34,2.94-.63v3.25c-.44.12-.91.23-1.42.33s-1.04.19-1.57.27c-.54.08-1.08.14-1.62.18-.55.04-1.08.06-1.59.06-1.29,0-2.45-.18-3.48-.55-1.03-.37-1.9-.91-2.61-1.63-.71-.72-1.26-1.61-1.64-2.67-.38-1.06-.57-2.29-.57-3.68s.19-2.64.57-3.77c.38-1.13.91-2.1,1.61-2.91.69-.81,1.53-1.43,2.52-1.87.99-.44,2.09-.66,3.31-.66s2.27.19,3.2.56,1.7.9,2.33,1.56c.62.67,1.1,1.47,1.42,2.39.32.93.49,1.94.49,3.05ZM84.1,42.63c.01-.67-.07-1.25-.25-1.75-.18-.5-.42-.91-.73-1.23-.31-.32-.66-.56-1.07-.72-.41-.16-.85-.23-1.31-.23-1.03,0-1.87.34-2.53,1.03s-1.05,1.65-1.17,2.9h7.06Z"/>
    <path class="cls-3" d="M102.94,53.02l-.1-2.23c-.36.38-.73.73-1.12,1.05s-.82.59-1.29.83-.98.42-1.53.54c-.55.13-1.16.19-1.82.19-.87,0-1.63-.13-2.29-.38-.66-.26-1.21-.61-1.66-1.07-.45-.46-.78-1.01-1.01-1.66-.23-.65-.34-1.36-.34-2.14s.17-1.54.51-2.23c.34-.68.86-1.27,1.56-1.76.7-.49,1.57-.88,2.61-1.15,1.04-.28,2.27-.42,3.67-.42h2.22v-1.02c0-.44-.06-.83-.18-1.18-.12-.35-.32-.65-.59-.89-.27-.25-.63-.44-1.06-.57s-.97-.2-1.61-.2c-1,0-1.99.12-2.97.34s-1.92.55-2.84.96v-3.26c.81-.32,1.75-.59,2.82-.8,1.06-.21,2.17-.32,3.32-.32,1.26,0,2.34.12,3.25.36.9.24,1.65.6,2.23,1.08s1.02,1.08,1.3,1.8.42,1.56.42,2.52v11.62h-3.5ZM102.36,45.51h-2.49c-.69,0-1.28.07-1.76.2-.48.13-.87.32-1.17.55s-.52.51-.66.81c-.14.31-.21.63-.21.98,0,.69.22,1.22.67,1.58.45.36,1.05.54,1.82.54.57,0,1.16-.21,1.78-.62.61-.41,1.29-1,2.02-1.77v-2.28Z"/>
    <path class="cls-3" d="M121.82,53.02l-.1-2.51c-.36.43-.73.83-1.1,1.19-.38.36-.79.66-1.22.91-.43.25-.9.45-1.4.59-.5.14-1.05.21-1.65.21-1,0-1.9-.2-2.68-.6-.78-.4-1.44-.97-1.97-1.71-.53-.74-.93-1.64-1.21-2.7-.28-1.06-.42-2.24-.42-3.55,0-1.56.22-2.92.66-4.06.44-1.14,1.05-2.09,1.83-2.85s1.71-1.31,2.78-1.67c1.07-.36,2.24-.54,3.5-.54.42,0,.85.03,1.28.08s.81.13,1.15.22v-6.64h4.08v23.65h-3.53ZM114.36,44.65c0,.94.06,1.74.19,2.4.13.66.32,1.21.57,1.63.25.42.56.73.93.93s.79.29,1.25.29c.69,0,1.35-.28,1.98-.84.62-.56,1.29-1.32,1.99-2.29v-7.43c-.32-.12-.72-.22-1.2-.3-.47-.08-.95-.12-1.43-.12-.66,0-1.25.13-1.77.4-.53.27-.97.65-1.35,1.14s-.66,1.09-.86,1.8c-.2.71-.3,1.5-.3,2.38Z"/>
    <path class="cls-3" d="M144.79,43.21c0,.28,0,.64-.03,1.09s-.04.87-.08,1.26h-11.18c0,.75.11,1.41.34,1.97.23.57.55,1.05.97,1.43.42.38.92.68,1.51.88s1.24.3,1.95.3c.83,0,1.71-.06,2.65-.19.94-.13,1.92-.34,2.94-.63v3.25c-.44.12-.91.23-1.42.33-.51.1-1.04.19-1.57.27-.54.08-1.08.14-1.62.18-.55.04-1.08.06-1.59.06-1.29,0-2.46-.18-3.48-.55s-1.9-.91-2.61-1.63-1.26-1.61-1.64-2.67c-.38-1.06-.57-2.29-.57-3.68s.19-2.64.57-3.77c.38-1.13.92-2.1,1.61-2.91.69-.81,1.53-1.43,2.52-1.87.99-.44,2.09-.66,3.31-.66s2.27.19,3.2.56c.93.37,1.7.9,2.33,1.56.62.67,1.1,1.47,1.42,2.39.32.93.49,1.94.49,3.05ZM140.63,42.63c.01-.67-.07-1.25-.25-1.75-.18-.5-.42-.91-.73-1.23-.31-.32-.66-.56-1.07-.72s-.85-.23-1.31-.23c-1.03,0-1.87.34-2.53,1.03-.66.69-1.05,1.65-1.17,2.9h7.06Z"/>
    <path class="cls-3" d="M159.76,42.63c.02-.64,0-1.18-.09-1.62-.08-.45-.22-.81-.4-1.1s-.41-.5-.68-.64-.58-.2-.92-.2c-.6,0-1.22.25-1.87.75-.64.5-1.35,1.31-2.12,2.45v10.76h-4.18v-17h3.7l.15,2.48c.28-.43.59-.83.95-1.17s.74-.64,1.17-.9c.43-.25.91-.44,1.43-.58.52-.13,1.1-.2,1.72-.2.86,0,1.62.15,2.29.44.66.3,1.22.73,1.67,1.31.45.58.79,1.31,1,2.18.22.88.31,1.89.28,3.04h-4.1Z"/>
  </g>
</svg>